<svg width="105" height="141" viewBox="0 0 105 141" fill="none" xmlns="http://www.w3.org/2000/svg">
<g clip-path="url(#clip0_9_341)">
<path d="M41.1139 31.3177C42.3326 32.2693 43.9872 32.6962 45.4816 32.9186L48.0969 33.0875C45.6684 30.7396 42.635 29.5479 39.3259 29.3789C39.8597 30.1082 40.4023 30.7841 41.105 31.3266H41.1139V31.3177Z" fill="#67E8F9"/>
<path d="M65.1939 29.3523C62.6231 29.6635 59.99 30.4462 57.9262 32.136C57.5526 32.4472 57.1079 32.8119 56.8054 33.1943C56.8677 33.2121 56.93 33.2477 57.0011 33.2566C59.7053 33.132 62.6764 32.7407 64.589 30.5618C64.8914 30.2238 65.1583 29.8058 65.3629 29.3967C65.2561 29.3256 65.3184 29.3345 65.1939 29.3612V29.3523Z" fill="#67E8F9"/>
<path d="M46.2377 46.7302C47.4564 48.1798 49.6447 50.8123 51.5217 51.2392C52.6514 51.4971 53.8167 51.2036 54.7596 50.5544C57.1258 48.9536 59.0739 46.4545 60.7996 44.1866C62.2941 42.1233 64.1354 39.971 64.7848 37.4363C64.9538 36.7693 65.0695 36.0045 64.9805 35.3108L64.9005 34.9105L64.8471 34.6704C61.9916 36.0311 58.7626 37.2496 55.6047 36.2446C54.6173 35.9333 53.6121 35.453 52.5624 35.4353C52.2155 35.4353 51.8686 35.5064 51.5306 35.5598C50.6321 35.711 49.7781 36.1734 48.8619 36.3602C46.4512 36.8493 44.4675 36.5736 42.2081 35.6042C41.532 35.3108 40.8649 34.9283 40.1532 34.6971C39.7085 36.8316 40.3133 38.5569 41.4342 40.3268C42.8486 42.5768 44.5209 44.7024 46.2466 46.7213H46.2288L46.2377 46.7302ZM59.1629 39.5085C59.9101 39.1795 60.6573 38.8059 61.3778 38.3879C61.9472 38.0589 62.5165 37.6498 63.1214 37.3919L63.2459 37.3741L63.3082 37.4541C62.9701 38.0411 62.4987 38.5391 61.965 38.9305C61.0131 39.6419 59.3141 40.1845 58.1488 40.0066H58.0331L57.9798 39.9265C58.3623 39.8821 58.7893 39.6597 59.154 39.5085H59.1629ZM43.9605 38.5125C44.939 39.0905 45.9709 39.553 47.0205 39.9532V40.0777C46.3712 40.309 45.3482 39.971 44.7077 39.7487C43.409 39.2951 42.3771 38.5569 41.7722 37.2673C42.5461 37.5786 43.2489 38.1033 43.9605 38.5125Z" fill="#67E8F9"/>
<path d="M22.5846 40.9138C21.7929 38.2635 20.6899 35.1418 22.0509 32.4826C22.7536 31.113 23.91 29.8946 25.022 28.8451C26.3029 27.6267 27.6817 26.5328 29.0961 25.5011C30.4838 24.4873 31.996 23.5179 33.2058 22.2727C34.8337 20.6007 36.1591 18.4663 37.4667 16.5186C37.9293 15.8516 38.3652 15.1045 38.89 14.4819C39.0323 14.313 39.1658 14.1707 39.3704 14.0995L39.5038 14.1351C39.4682 14.6064 39.1302 15.2112 38.9345 15.6292C37.956 17.7192 36.7284 19.8448 35.3941 21.7124L33.9797 23.589C33.7306 23.9181 33.4193 24.256 33.2414 24.6296C34.0687 23.9892 34.9493 23.4734 35.8655 22.9576C37.8403 21.8281 39.8774 20.8853 41.9145 19.907L47.4119 17.3279C48.2036 17.0077 49.0042 16.6876 49.8314 16.4474C50.0983 16.3674 50.3563 16.3229 50.6231 16.2607C50.6765 16.2518 50.8811 16.234 50.9256 16.1984C50.9612 16.1717 51.0946 15.3535 51.1124 15.2379C51.6017 11.547 51.6461 7.77615 51.3526 4.05862C51.2814 3.08921 51.2369 1.89747 50.8633 1.017C50.6409 0.84802 50.4186 0.830232 50.1517 0.865807H50.0983C47.7855 1.17708 45.5171 1.89747 43.5779 3.28487C42.4304 4.11198 41.3274 5.29483 40.4823 6.44211C39.5839 7.66053 38.8455 8.96789 38.1072 10.293L36.8618 12.5965C35.9901 14.3485 35.2162 16.1628 34.0331 17.7281C33.2592 18.7598 32.4319 19.7559 31.4712 20.6096C30.4215 21.5613 29.2295 22.3083 28.1265 23.1888C26.552 24.4695 25.1109 25.8925 23.7143 27.3955C22.4334 28.7562 21.0457 30.2325 20.2985 31.9846C19.7825 33.1941 19.5957 34.5282 19.7736 35.8266C20.0761 37.9878 21.188 39.3574 22.6113 40.8693L22.5846 40.896V40.9138Z" fill="#67E8F9"/>
<path d="M54.1103 16.0028C57.1792 17.1234 60.1058 18.404 63.0591 19.8003C66.0658 21.2144 69.1703 22.7352 71.8479 24.7274C69.8998 22.4951 68.263 19.8804 66.8575 17.2479C66.3683 16.3407 65.8078 15.3802 65.5943 14.3486L65.6477 14.2418C65.7189 14.2507 65.7989 14.2507 65.8612 14.2774C65.9324 14.3041 66.1014 14.5442 66.1548 14.6154L67.0621 15.9227L69.3482 19.329C70.0154 20.334 70.6915 21.3123 71.5276 22.1838C72.8975 23.6157 74.5343 24.6651 76.0999 25.8213C77.5499 26.8886 78.9465 28.0536 80.2719 29.2898C81.8731 30.864 83.4387 32.6516 83.5009 35.0618C83.5454 36.9206 83.1451 39.1529 82.3089 40.8071C82.896 40.2557 83.4832 39.6954 83.9546 39.0283C84.7018 37.9611 85.1377 36.4937 85.1822 35.1685C85.2889 32.5182 84.1414 30.6239 82.4424 28.7473C80.8946 26.9953 79.2044 25.2521 77.4075 23.758C75.5662 22.2283 73.5291 20.9921 71.9724 19.1244C70.1755 16.9722 69.1614 14.2063 67.9072 11.6983C66.386 8.68332 64.26 5.26817 61.5202 3.276C60.3638 2.44 59.1095 1.87081 57.7663 1.4617C56.9479 1.20379 56.0495 0.94587 55.1866 0.919189H54.3594C53.9591 2.03089 53.8701 3.24932 53.7723 4.41438C53.5943 6.4777 53.5765 8.51434 53.6388 10.5866C53.6833 12.3653 53.7989 14.1885 54.1192 15.9583V15.9761L54.1103 16.0028Z" fill="#67E8F9"/>
<path d="M31.3376 27.013C29.9232 27.8312 28.4911 28.6405 27.1834 29.6188C26.2494 30.3214 25.351 31.1574 24.6571 32.1268C23.7587 33.4075 23.3584 34.9727 23.5985 36.5469C23.9277 38.6814 25.1019 40.3 26.5252 41.8119C28.1708 43.564 30.1011 45.067 32.0226 46.49C33.4814 47.575 35.1627 48.5533 36.4347 49.8607C35.99 48.9535 35.5185 48.0286 34.9848 47.1837C34.1308 45.8407 33.0989 44.649 32.1115 43.4128L29.9321 40.6113C29.0871 39.5619 28.0107 38.5391 27.388 37.3296C27.0767 36.7248 26.9521 35.9066 27.1656 35.2485C27.984 32.6248 34.9403 29.0941 37.2798 27.8667L40.5978 26.1503L45.0811 24.1136C47.4651 23.0998 49.8224 22.157 52.4377 22.1482C54.1011 22.1837 55.6134 22.5484 57.1879 23.0642C59.9455 23.9625 62.5696 25.1987 65.1582 26.506L70.9492 29.6099C73.0041 30.7839 75.4503 32.0734 77.0782 33.8433C77.5941 34.4036 78.0211 35.115 77.9855 35.9244C77.9588 36.5202 77.6564 37.1428 77.345 37.6408C76.7313 38.628 75.8862 39.4729 75.1568 40.3801L72.5949 43.733L70.5489 46.4099C69.8551 47.4149 69.3836 48.5355 68.7787 49.5939L73.1998 46.4455C74.2405 45.654 75.2101 44.7557 76.1797 43.8753C78.3769 41.8831 80.8677 39.6775 81.3124 36.5025C81.5526 34.8393 81.1879 33.3808 80.2272 32.0379C79.2487 30.686 77.772 29.6544 76.4199 28.7294C71.1627 25.1097 65.3361 22.5662 59.4473 20.2716L55.8625 18.9465C55.0174 18.6619 54.1545 18.3595 53.2561 18.2439C52.8647 18.1905 52.4466 18.1727 52.0552 18.2261C49.3243 18.653 46.6556 19.8002 44.1026 20.8497C39.7172 22.6373 35.4473 24.6206 31.3287 27.0041V26.9863L31.3376 27.013Z" fill="#67E8F9"/>
<path d="M93.3392 61.9472C92.761 60.6131 91.9515 59.3769 91.0886 58.1941C89.016 55.3481 86.3829 52.6889 83.4919 50.7412C82.2999 49.9319 81.01 49.2827 79.7202 48.6779C78.2346 47.9753 76.3577 46.997 74.6764 47.3705C73.3777 47.664 72.1768 48.3933 71.0026 49.0069C70.0864 49.4872 68.9833 49.9408 68.245 50.6878C67.4088 51.5149 66.7951 52.5733 65.8165 53.2492C66.119 52.0308 66.8751 51.0614 67.3733 49.9319C68.2005 48.0553 68.7254 46.0987 69.2413 44.1066C69.4192 43.4218 69.6416 42.7103 69.7572 42.0166C68.0938 44.6135 66.4837 47.3438 64.6068 49.7985L56.1205 60.0795L53.95 62.9788C53.4696 63.6903 53.0871 64.6241 52.4733 65.22C51.6638 63.8682 50.9077 62.5075 49.9737 61.2268C47.0649 57.198 43.5423 53.6672 40.5089 49.7362C39.3703 48.2688 38.3651 46.7302 37.3777 45.1471C36.6572 43.9821 35.9455 42.7814 35.1182 41.6875C35.6698 43.5018 35.9455 45.3784 36.6127 47.1571L38.0715 50.6167C38.4807 51.5149 38.9611 52.3598 39.2191 53.3204C38.1694 52.5377 37.52 51.3638 36.5326 50.5189C36.0256 50.0831 35.3406 49.7629 34.7535 49.4161C33.5526 48.7046 32.2539 47.7352 30.9107 47.3794C30.288 47.2282 29.6386 47.246 29.0248 47.3527C27.3703 47.6373 25.8225 48.3399 24.3369 49.1137C20.0849 51.3638 16.2331 54.6455 13.4666 58.701C12.159 60.6131 11.1449 62.8276 10.6735 65.1222C13.5111 63.5925 16.4822 62.8365 19.6045 62.2584C21.4281 61.9294 23.2606 61.6092 25.1019 61.4669C29.5853 61.129 34.2376 61.5914 38.543 63.0055C39.0412 63.1745 39.6549 63.4858 40.1709 63.4946C37.8936 62.125 35.6964 60.6131 33.2146 59.6971C31.7291 59.1546 30.1813 58.8611 28.6156 58.7544C27.8862 58.7099 21.8373 58.6743 21.7128 58.5498C21.6861 58.5231 21.6861 58.4698 21.6683 58.4431C21.944 58.2118 22.6824 58.2563 23.0471 58.2474L26.9522 58.2207C27.6105 58.2296 28.2687 58.3364 28.9359 58.2474C27.8328 58.034 26.0093 57.865 25.3243 56.8244C25.1731 56.5932 25.1286 56.2819 25.1909 56.0062C25.2532 55.7394 25.4311 55.5615 25.6623 55.4281C26.454 54.9835 28.331 55.7483 29.1405 56.0329C32.2005 57.0824 35.0827 58.5854 37.7869 60.373C38.7743 61.0311 39.7795 61.6892 40.6868 62.4452C42.2168 63.717 43.6134 65.1578 45.0367 66.5896L49.013 70.6985L51.2191 73.3221C51.6994 73.918 52.1709 74.5494 52.6957 75.1008C54.0211 73.0553 55.6579 71.1698 57.2769 69.3644C60.0167 66.3228 62.9166 63.3524 66.2257 60.96C68.4674 59.3413 70.967 57.945 73.5022 56.8867C74.5519 56.4509 78.1991 54.9479 79.1598 55.357C79.3911 55.4637 79.6312 55.6861 79.7202 55.944C79.818 56.2019 79.7736 56.531 79.6757 56.7711C79.4355 57.3136 78.6883 57.5893 78.1635 57.7583L76.1442 58.2919C76.8203 58.3186 77.5052 58.2296 78.1902 58.2029H81.2769C81.8996 58.2029 82.5934 58.1763 83.1894 58.3719C82.4956 58.5854 81.8284 58.5943 81.099 58.6121L78.3681 58.6565C75.5304 58.7366 72.8529 59.2079 70.2554 60.4352C69.2057 60.9333 68.2183 61.5381 67.2309 62.1428C66.5282 62.5697 65.7276 62.9344 65.0604 63.4146L69.3481 62.2318C70.7446 61.8849 72.1946 61.6448 73.6179 61.4847C77.0338 61.0845 80.5475 61.4402 83.9366 61.9827C87.4415 62.543 91.1598 63.3612 94.2732 65.1933C94.0508 64.0816 93.775 62.961 93.3214 61.9205L93.3036 61.9472H93.3392Z" fill="#67E8F9"/>
</g>
<path d="M6.63428 103.327L3.1537 100.348V83.196L6.63428 80.2171H22.3439L25.8245 83.196V88.4325L16.637 88.4012V85.0147H12.0903V98.5293H15.226L18.8633 95.4564H15.8218V90.6589H25.8245V103.327H18.8947V101.414L16.6057 103.327H6.63428ZM26.7816 103.327L31.8927 80.2171H47.3515L52.4313 103.327H43.087L42.554 99.909H36.6589L36.1259 103.327H26.7816ZM37.5683 94.2335H41.6446L40.2649 85.5164H38.948L37.5683 94.2335ZM53.3984 103.327V80.2171H62.0528L66.3801 91.4741L70.7073 80.2171H79.3303V103.327H71.303V91.4114L68.1047 101.885H64.6868L61.4257 91.3487V103.327H53.3984ZM81.5177 103.327V80.2171H101.68V86.3944H90.4543V89.2792H100.363V94.2649H90.4543V97.1497H101.68V103.327H81.5177Z" fill="#67E8F9"/>
<path d="M2.93519 140.94V106.275H16.3401V131.157H30.2154V140.94H2.93519ZM37.4158 140.94L32.1949 136.472V110.744L37.4158 106.275H60.604L65.8248 110.744V136.472L60.604 140.94H37.4158ZM45.5998 133.744H52.4199V113.472H45.5998V133.744ZM73.3019 140.94L68.081 136.472V110.744L73.3019 106.275H96.8664L102.087 110.744V118.598L88.306 118.551V113.472H81.486V133.744H86.1895L91.6455 129.134H87.0831V121.938H102.087V140.94H91.6925V138.071L88.259 140.94H73.3019Z" fill="#67E8F9"/>
<defs>
<clipPath id="clip0_9_341">
<rect width="83.6175" height="74.2617" fill="white" transform="translate(10.6913 0.839111)"/>
</clipPath>
</defs>
</svg>
